<svg width="37" height="37" viewBox="0 0 37 37" fill="none" xmlns="http://www.w3.org/2000/svg">
<path d="M34.9188 18.5C36.0682 18.5 37.0121 17.5653 36.8831 16.4231C36.4706 12.7714 34.977 9.30789 32.5707 6.48898C29.712 3.13999 25.7524 0.92046 21.4038 0.229318C17.0552 -0.461824 12.6026 0.420746 8.84645 2.7184C5.09025 5.01605 2.27674 8.57811 0.911587 12.7643C-0.453562 16.9506 -0.28082 21.4865 1.39877 25.5568C3.07835 29.627 6.15464 32.9648 10.0747 34.9701C13.9948 36.9754 18.5016 37.5168 22.785 36.4969C26.3905 35.6385 29.6387 33.7212 32.1247 31.0148C32.9022 30.1682 32.6908 28.8567 31.7624 28.1791V28.1791C30.8339 27.5015 29.5416 27.718 28.7368 28.5386C26.8555 30.457 24.4618 31.8188 21.8209 32.4476C18.5012 33.238 15.0084 32.8185 11.9704 31.2644C8.93233 29.7102 6.54821 27.1235 5.24653 23.969C3.94484 20.8145 3.81097 17.2992 4.86896 14.0549C5.92695 10.8105 8.10743 8.04992 11.0185 6.26924C13.9295 4.48856 17.3803 3.80457 20.7505 4.3402C24.1207 4.87584 27.1893 6.59598 29.4048 9.19145C31.1674 11.2563 32.2981 13.7673 32.6867 16.426C32.853 17.5633 33.7693 18.5 34.9188 18.5V18.5Z" fill="#FE264A"/>
</svg>
